<svg width="32" height="32" viewBox="0 0 32 32" fill="none" xmlns="http://www.w3.org/2000/svg">
  <rect width="32" height="32" rx="8" fill="#0D9488"/>
  <path d="M9 11C9 9.89543 9.89543 9 11 9H21C22.1046 9 23 9.89543 23 11V21C23 22.1046 22.1046 23 21 23H11C9.89543 23 9 22.1046 9 21V11Z" fill="white" fill-opacity="0.2"/>
  <path d="M12 12H20V20H12V12Z" fill="white"/>
  <path d="M14 14H18V18H14V14Z" fill="#0D9488"/>
  <path d="M10 10V22M10 22H22M22 22V10M22 10H10" stroke="white" stroke-width="2" stroke-linecap="round" stroke-linejoin="round"/>
  <circle cx="21" cy="11" r="3" fill="#F59E0B" stroke="white" stroke-width="1.5"/>
</svg>
